<?xml version="1.0" standalone="no"?>
<!DOCTYPE svg PUBLIC "-//W3C//DTD SVG 20010904//EN"
 "http://www.w3.org/TR/2001/REC-SVG-20010904/DTD/svg10.dtd">
<svg version="1.0" xmlns="http://www.w3.org/2000/svg"
 width="445.000000pt" height="445.000000pt" viewBox="0 0 445.000000 445.000000"
 preserveAspectRatio="xMidYMid meet">

<g transform="translate(0.000000,445.000000) scale(0.100000,-0.100000)"
fill="#000000" stroke="none">
<path d="M2130 3613 l0 -688 85 0 85 0 0 688 0 687 -85 0 -85 0 0 -687z"/>
<path d="M765 3628 c-3 -7 -4 -258 -3 -558 l3 -545 138 -3 137 -3 0 421 0 420
420 0 420 0 0 140 0 140 -555 0 c-435 0 -557 -3 -560 -12z"/>
<path d="M2544 3627 c-2 -7 -3 -69 -2 -138 l3 -124 417 -3 418 -2 2 -418 3
-417 138 -3 137 -3 0 561 0 560 -555 0 c-448 0 -557 -3 -561 -13z"/>
<path d="M100 2215 l0 -85 684 0 685 0 3 85 3 85 -687 0 -688 0 0 -85z"/>
<path d="M2940 2215 l0 -85 685 0 685 0 0 85 0 85 -685 0 -685 0 0 -85z"/>
<path d="M765 1878 c-3 -7 -4 -258 -3 -558 l3 -545 558 -3 557 -2 0 140 0 140
-415 0 c-325 0 -415 3 -416 13 -1 6 -2 21 -3 32 -1 11 -3 194 -4 408 l-2 387
-135 0 c-99 0 -137 -3 -140 -12z"/>
<path d="M3387 1883 c-4 -3 -7 -192 -7 -420 l0 -413 -417 -2 -418 -3 0 -135 0
-135 558 -3 557 -2 0 560 0 560 -133 0 c-74 0 -137 -3 -140 -7z"/>
<path d="M2130 823 l0 -683 85 0 85 0 0 683 0 682 -85 1 -85 0 0 -683z"/>
</g>
</svg>
